<?xml version="1.0" encoding="utf-8" ?>
<svg xmlns="http://www.w3.org/2000/svg" xmlns:xlink="http://www.w3.org/1999/xlink" width="1024" height="1024">
	<path transform="scale(2 2)" d="M97.2958 135.986C111.72 130.146 135.283 126.52 150.412 125.562C183.37 123.186 230.346 133.692 255.818 154.658C264.799 148.643 268.821 145.419 278.854 140.933C317.83 123.505 363.168 120.843 403.967 133.271C417.742 137.467 414.844 136.405 414.763 151.956C434.769 150.514 433.021 167.429 433.024 180.71L433.037 353.455C433.03 375.502 423.484 373.827 407.217 369.438C392.94 365.586 380.532 365.066 366.938 362.253C359.034 362.672 351.033 362.121 343.106 362.303C315.48 362.939 288.11 370.366 263.412 382.598C253.833 387.342 251.716 383.837 243.061 379.815C199.714 359.672 152.657 357.298 106.555 368.934C98.8185 370.887 89.4156 374.541 82.633 368.307C76.7887 362.935 78.6539 352.391 78.6538 345.158L78.6266 174.255C78.5593 159.039 80.4656 152.181 97.2958 151.956C97.3341 146.986 96.3105 140.659 97.2958 135.986ZM154.322 134.038C139.694 135.162 118.091 136.553 105.751 143.123C105.519 165.49 105.75 187.886 105.751 210.256L105.751 340.361C144.593 330.628 179.609 331.888 216.562 347.855C228.917 353.416 240.326 360.722 251.241 368.705L251.239 184.6C251.239 177.17 250.923 169.586 251.241 162.172C226.461 142.521 186.144 132.294 154.322 134.038ZM343.119 134.477C312.028 137.684 286.569 142.337 260.478 162.172L260.478 368.705C276.496 359.106 286.848 350.007 305.941 343.58C340.848 333.291 370.098 329.889 406.156 341.46C406.29 334.126 406.158 326.773 406.157 319.436L406.156 143.123C385.672 136.118 364.699 133.847 343.119 134.477ZM414.763 160.414L414.77 323.473C414.77 327.469 416.038 346.309 413.355 348.834C409.371 352.583 401.251 348.643 396.856 347.557C357.039 337.716 316.368 343.991 281.066 365.293C284.503 364.157 287.813 362.813 291.33 361.905C327.157 350.192 370.443 350.512 407.025 360.102C412.396 361.51 424.447 368.394 424.581 358.16C424.745 345.68 424.498 333.151 424.498 320.664L424.5 193.685C424.5 188.314 425.172 168.453 423.853 164.692C422.477 160.771 418.387 160.15 414.763 160.414ZM93.1732 160.414C84.4446 162.864 87.2779 175.6 87.2949 183.137L87.2661 344.227C87.2663 347.423 86.7694 357.551 87.5474 360.158C89.4642 366.58 100.145 361.397 104.302 360.376C140.609 351.464 176.209 350.288 212.422 359.433C215.912 360.314 219.437 361.537 222.998 362.038L224.435 362.253C226.549 363.621 228.764 364.432 231.121 365.293C199.534 344.321 156.838 338.903 120.236 346.28C113.972 347.542 107.563 349.553 101.254 350.397C94.5606 347.743 97.3389 336.589 97.3169 329.619L97.2958 160.414C95.9221 160.393 94.5461 160.347 93.1732 160.414Z"/>
	<path transform="scale(2 2)" d="M142.827 188.761C129.526 179.877 157.587 178.586 161.375 178.232C179.45 177.714 198.173 179.331 215.115 186.042C221.608 188.614 223.135 193.416 215.998 195.94C211.595 194.589 207.37 192.321 202.607 190.898C188.409 187.406 173.665 186.048 159.069 187.08C153.732 187.457 148.134 188.961 142.827 188.761Z"/>
	<path transform="scale(2 2)" d="M326.69 187.343C319.776 188.77 312.343 190.339 305.593 192.416C302.735 193.296 297.468 196.942 294.522 195.105C292.364 193.76 292.034 190.411 293.541 188.474C297.872 182.908 327.608 179.042 334.671 178.232C341.368 177.889 368.243 177.637 372.42 181.72C374.029 183.293 373.583 186.322 371.908 187.675C370.222 189.036 343.856 186.527 338.83 186.756C334.805 186.939 330.712 187.66 326.69 187.343Z"/>
	<path transform="scale(2 2)" d="M201.659 222.005C180.272 216.705 165.45 217.777 144.521 219.903C140.95 220.266 137.926 216.16 140.724 213.229C143.879 209.924 157.606 209.607 162.47 209.49C175.616 207.522 201.088 212.111 213.159 216.593C219.953 219.116 225.088 223.949 215.998 227.174C211.188 225.827 206.582 223.437 201.659 222.005Z"/>
	<path transform="scale(2 2)" d="M322.807 219.728C316.835 220.694 311.033 222.031 305.273 223.9C302.278 224.872 297.509 228.148 294.442 226.077C292.505 224.77 291.676 222.048 293.215 220.124C298.439 213.593 330.404 210.135 338.424 209.49C345.009 209.467 366.811 209.639 371.754 212.686C375.016 214.696 373.164 219.798 369.424 219.969C365.419 220.153 361.071 218.763 357.02 218.506C345.534 217.779 334.196 218.088 322.807 219.728Z"/>
	<path transform="scale(2 2)" d="M201.659 253.463C186.06 249.387 169.539 248.898 153.555 250.53C150.275 250.866 144 252.594 141.22 250.435C139.569 249.153 139.467 246.226 140.811 244.703C143.6 241.541 158.633 241.129 163.329 240.761C179.693 240.178 201.965 242.491 216.873 249.642C222.546 252.363 221.421 257.028 215.998 258.668C211.177 256.755 206.698 254.81 201.659 253.463Z"/>
	<path transform="scale(2 2)" d="M324.214 250.582C318.889 252.382 313.348 253.283 307.959 254.881C304.077 256.033 293.478 262.321 292.41 254.549C291.152 245.404 331.423 241.735 337.393 241.266C340 241.182 385.095 240.452 371.727 250.864C370.432 251.873 343.413 249.579 339.009 249.776C334.118 249.994 329.092 251.076 324.214 250.582Z"/>
	<path transform="scale(2 2)" d="M202.607 285.162C186.689 281.094 170.663 279.886 154.373 281.738C151.457 282.069 144.937 283.725 142.221 282.534C139.847 281.492 138.87 277.854 140.691 275.893C143.376 273.002 156.987 272.63 161.375 272.527C173.468 270.239 214.962 275.901 220.193 283.517C222.019 286.176 219.046 290.16 216.028 289.862C213.278 289.591 206.244 286.228 202.607 285.162Z"/>
	<path transform="scale(2 2)" d="M319.537 283.321C311.675 284.792 304.067 288.354 297.278 289.585C293.567 290.258 290.706 285.878 293.336 282.884C299.275 276.12 333.063 272.898 341.678 272.527C347.397 272.658 367.301 273.285 371.528 275.706C375.183 277.798 373.546 283.008 369.444 283.273C366.946 283.435 364.127 282.552 361.638 282.178C347.883 280.109 333.172 281.041 319.537 283.321Z"/>
</svg>
